<?xml version="1.0" standalone="no"?>
<!DOCTYPE svg PUBLIC "-//W3C//DTD SVG 20010904//EN"
 "http://www.w3.org/TR/2001/REC-SVG-20010904/DTD/svg10.dtd">
<svg version="1.0" xmlns="http://www.w3.org/2000/svg"
 width="260.000000pt" height="260.000000pt" viewBox="0 0 260.000000 260.000000"
 preserveAspectRatio="xMidYMid meet">
<metadata>
Created by potrace 1.11, written by Peter Selinger 2001-2013
</metadata>
<g transform="translate(0.000000,260.000000) scale(0.100000,-0.100000)"
fill="#000000" stroke="none">
<path d="M0 1300 l0 -1300 1300 0 1300 0 0 1300 0 1300 -1300 0 -1300 0 0
-1300z m1530 880 c201 -53 384 -176 510 -345 182 -243 226 -576 116 -868 -49
-130 -109 -218 -223 -328 -107 -103 -177 -149 -300 -195 -161 -61 -369 -77
-521 -41 -190 45 -311 112 -450 250 -122 120 -199 253 -243 423 -33 126 -33
311 0 439 67 261 248 483 486 599 76 37 177 69 285 90 59 11 257 -3 340 -24z"/>
<path d="M1135 2110 c-150 -34 -256 -86 -368 -180 -100 -84 -195 -216 -238
-329 -26 -70 -62 -230 -55 -248 4 -10 50 -13 220 -13 229 0 226 -1 226 51 0
34 60 139 105 184 24 24 72 59 107 77 60 31 68 33 173 33 105 0 113 -2 174
-33 34 -18 83 -53 106 -78 46 -47 105 -153 105 -188 0 -46 4 -47 231 -44 l214
3 -3 45 c-9 118 -69 274 -148 385 -192 271 -536 406 -849 335z"/>
<path d="M1195 1592 c-72 -23 -165 -118 -188 -191 -37 -115 -13 -230 64 -315
71 -78 124 -101 234 -101 75 0 98 4 135 24 61 32 117 86 148 146 23 43 26 62
26 140 0 78 -3 97 -26 141 -36 68 -113 136 -178 157 -65 21 -150 21 -215 -1z
m203 -121 c68 -35 102 -93 102 -176 0 -119 -76 -195 -195 -195 -119 0 -195 76
-195 195 0 119 74 194 193 195 38 0 71 -7 95 -19z"/>
<path d="M1221 1379 c-25 -25 -31 -39 -31 -75 0 -84 37 -123 116 -124 45 0 56
4 83 32 27 27 31 39 31 84 0 45 -4 57 -31 83 -26 27 -38 31 -84 31 -46 0 -58
-4 -84 -31z"/>
<path d="M481 1251 c-12 -8 -12 -22 3 -98 66 -332 289 -575 611 -664 114 -32
306 -32 420 0 241 67 436 230 543 451 51 106 91 282 71 307 -9 10 -57 13 -210
13 -213 0 -229 -4 -229 -54 0 -38 -59 -143 -106 -191 -25 -24 -75 -59 -112
-77 -62 -31 -74 -33 -167 -33 -93 0 -105 2 -167 33 -37 18 -87 52 -112 76 -48
48 -106 150 -106 190 0 52 -14 56 -228 56 -108 0 -203 -4 -211 -9z"/>
</g>
</svg>
